<mxfile host="app.diagrams.net" agent="Mozilla/5.0 (Windows NT 10.0; Win64; x64) AppleWebKit/537.36 (KHTML, like Gecko) Chrome/130.0.0.0 Safari/537.36 Edg/130.0.0.0" version="24.8.4">
  <diagram name="Pagina-1" id="ZjYaO-D6kX0lxh7TMoJy">
    <mxGraphModel dx="1426" dy="755" grid="1" gridSize="10" guides="1" tooltips="1" connect="1" arrows="1" fold="1" page="1" pageScale="1" pageWidth="1169" pageHeight="827" math="0" shadow="0">
      <root>
        <mxCell id="0" />
        <mxCell id="1" parent="0" />
        <mxCell id="ieZ4U-sFw4jwm45tuv-F-2" value="" style="shape=image;imageAspect=0;aspect=fixed;verticalLabelPosition=bottom;verticalAlign=top;image=data:image/png,iVBORw0KGgoAAAANSUhEUgAAAgAAAAEYCAMAAAAdy76jAAADAFBMVEXAQMCfr7VxfIJFT1Q0OjwrJx0iHQ4NCwoEAwX0XhTMQgycJgRUSixEOhx8aiwAAAAAAAAAAAAAAAAAAAAAAAAAAAAAAAAAAAAAAAAAAAAAAAAAAAAAAAAAAAAAAAAAAAAAAAAAAAAAAAAAAAAAAAAAAAAAAAAAAAAAAAAAAAAAAAAAAAAAAAAAAAAAAAAAAAAAAAAAAAAAAAAAAAAAAAAAAAAAAAAAAAAAAAAAAAAAAAAAAAAAAAAAAAAAAAAAAAAAAAAAAAAAAAAAAAAAAAAAAAAAAAAAAAAAAAAAAAAAAAAAAAAAAAAAAAAAAAAAAAAAAAAAAAAAAAAAAAAAAAAAAAAAAAAAAAAAAAAAAAAAAAAAAAAAAAAAAAAAAAAAAAAAAAAAAAAAAAAAAAAAAAAAAAAAAAAAAAAAAAAAAAAAAAAAAAAAAAAAAAAAAAAAAAAAAAAAAAAAAAAAAAAAAAAAAAAAAAAAAAAAAAAAAAAAAAAAAAAAAAAAAAAAAAAAAAAAAAAAAAAAAAAAAAAAAAAAAAAAAAAAAAAAAAAAAAAAAAAAAAAAAAAAAAAAAAAAAAAAAAAAAAAAAAAAAAAAAAAAAAAAAAAAAAAAAAAAAAAAAAAAAAAAAAAAAAAAAAAAAAAAAAAAAAAAAAAAAAAAAAAAAAAAAAAAAAAAAAAAAAAAAAAAAAAAAAAAAAAAAAAAAAAAAAAAAAAAAAAAAAAAAAAAAAAAAAAAAAAAAAAAAAAAAAAAAAAAAAAAAAAAAAAAAAAAAAAAAAAAAAAAAAAAAAAAAAAAAAAAAAAAAAAAAAAAAAAAAAAAAAAAAAAAAAAAAAAAAAAAAAAAAAAAAAAAAAAAAAAAAAAAAAAAAAAAAAAAAAAAAAAAAAAAAAAAAAAAAAAAAAAAAAAAAAAAAAAAAAAAAAAAAAAAAAAAAAAAAAAAAAAAAAAAAAAAAAAAAAAAAAAAAAAAAAAAAAAAAAAAAAAAAAAAAAAAAAAAAAAAAAAAAAAAAAAAAAAAAAAAAAAAAACgtKcuAAAK5UlEQVR42u3d7Y7bNhCF4U3TfDVp7v9yawI5wOnBDEV5vbuS9c6ftRVZtjhPC4Kkhi8vBEEQBEEQJ4pvt5i9Xz2HAAABAAIAxLmS/+UWSmi+Xz2HAAABAAIABAAIABAAIABAHDvxCiWze79yDi0KAAIABACIYydb8ekWf93ii0X1fuWcca3qO2h5ABAAIABAfGziR6K+3uLXLX7/Cf3bZ4u/d4Q+o+vouuM7vv4JIAAAAAAAAACIj0n+SLySPRIy3v+K+PbKyOt58gUCBAAAAAAIABCvH8BZ6VhlwisE3y2UvJ+3+LER4xyd79dQR1PJ/xIBAgAAAAAEAIj9nbgqtjpnSrYa3xMzEubnJoJZePLzGv4djsAHhe4BDQAAAAAAAADA1QBUgzcCMJKhxRiKce6YoBnHPRG6zvicEuefSwTVgJEfW7mGkq6/vrjEf29+nswDgAAAAQAA/L8j58lQh0zJ1gJPNaoWbOgaDskXhCp0rhKtgR0PHdM19N0KJfHfW2TnT4tIcqFpQhACBQAAAAAAAAAAV50E8uSp8TVhM/56sj0ROj4iJ2b0XucrMTlI5AjymM4dn/WE+gJUJV+LR9VB1ffpN/vDJfnA6WUxAAAAAAAAAC4HIB/erDqCDiA7fVsI/NqOQp3AcU3/bkejYzpHSVX4A6I5COQPoSSEqlPoydd1LoEBAAAAAAAAcEkA/oClBk8qBAmgQ6BGrRD4QJAPGo3rJj4lUcd0jpKYA0G+KORrxAyCdwo7BLqXp4QAAAAAAAAAuCSAcTO54FONkwgcQNXp84IPjiCLPHryE4AWlHjidMwBOALvZPq95KTSFoQcFPLOX/6mp0EAAAAAAAAAuCQA3ZwXWdLNewP7wIwWhOSCDEfgxZyyWIMPBDkADfLMAPhAkA8G+eBRLmD1+5pByIUj1SKRnCg6/UMlAAAAAAAAgEsC8IUWaiQH0CHQpJAP/GSnLweA1LlUsoSj2hwiO43dMe/AecetepClQ9BB0GufZPpexPj30w4MAQAAAAAAAADQAFDnLBH4okx1xrKT1G0SUQ0aZadKyfZikn5M5/lgUC7o6MKLSuWEUbWItJsgyuSfcmAIAAAAAAAAAIAJADW8b87gAz+Z/Kr4gl77pk8+aeTJuQeAEubJ2ioEkQ+gZpHJ2QSR7tMx6POnQgAAAAAAAAAAwAYA7/z5Yo9Mvi8G7V77IEt2AD2xCcCP5bmzhz2q1/6dPjiUncH8vVsTRFo4ehoEAAAAAAAAAADcYhRXmgHQjefCzxzAURK611XnLzuB+jd/ONSP5YBTdga3focnMCeJtgaFqkmhLJJ9GgQAAAAAAAAAABiAbHQHkIlOANlg+XrW+as6gTMA1We678rXCWCGoFq4Oh5O6QB4+xweAQAAAAAAAAAAfwBkQccKQCLwggkrCPwBzmrjJ/9NPsHix2YLT/YkPxeN5sOk3hnUXwHoBoNOhQAAAAAAAAAAgADgN151AqsbXlkU6oWiBCBDCc4CTwmi++zW9+eG1dWmmBUCdXpXAZxiUAgAAAAAAABwWQBCoMarJkOqTqAnwxvLB1W6SADVZNBKEreOVZtddZEAumISAvDPLVYQJGAAAAAAAAAAAI6IoCqsPOsEJoBswFUA3aROLub0B0sSY6L0iZwKQRaR0LGE4NdIBBWAU/9fAAAAAAAAAHBJACPyx74FAG9If8jTY5b02etuo+pE4INR1bFMfrUwxQH4opjZgNDhEQAAAAAAAAAuC0AIfOOl3JTBizbngMtq8n3CpupAvRUAL+5QFafcOpYAusGgLQSHLioJAAAAAAAAuCyAhOAPWeihyqpotKIDUBVk9EIP3QMeXlBq63UHoCtU+Sli65i3SQIYv2EFQU5cAQAAAAAAAABwVASfI3SsQqDNJKvkZwcwCz15w9wLQL8vAXihSd+sKgtJbh3TPY/r3AMgjwsVAAAAAAAAAABHBJAbL3tHLTdqrBDsSb431M+dsQJAWD7dEV5gsgKQE0LdJpNZUPvQCAAAAAAAAACXBtAtCFlBoMSsDP4kAG1Q/WMxfBPLCkHey73hvzMXhVQdwdlk1+ERAAAAAAAAAABQAPAFIx0CJWYr+d0mDEKwEkp0Tgw5At3LvaFOpha+JABH0C0S8U6lL2g5JAIAAAAAAADA5QBk0cUOgC+S7BaJ+MBQ1SBq2ArBngIP1QMeFQBNNCl8M4nZMZ8M06IXB5APtlSdXO/4acMtIfAFNwAAAAAAAAAAfFTixw2OopErAHKiRddQQkYjzQpGVpHA9kZODI2oEORil61jnnwNcGkhrBeYzIdnqo6fIje50vcAAAAAAAAAAPBeoWLReSMrAFRMQQhy0qTasLl68NQHRHygSZ9fXbiRIKuJoXseDu0ecs0C01noouv4+SBTtaEmAAAAAAAAAADvkXwNvCihewE4giqyYdU51PV9MsUHoRzP3vcOoCoa0RWE6o6Nz2aBiyrxDjKLXup+s+On83SNd/+vHwAAAAAAAHA5AL54wSde9gBIBFXo34TNJ1KqgSAlc/zNTZu23ju6HFjKB0ZWCkhXHb9sJyV+ZbCn6vh9yH/5AAAAAAAAAABY8Wc10CqAbNDfk9D35GIKNYgvCvFEZtHKrfeJQAstcoOrlcjCVlk4enWhh3f8qs7xhy0CAQAAAAAAAFwWgA8E5QYQqwC88GF2nhKAcFUA1PFTwh4R1eKQe6JKfHbyfHIrB3t0f/57DvMgCAAAAAAAAOCyAITAb7gD4AUOvXEcQAXCJ2G0mHI2EKSGyobc87pa1Pna5KuQZfWg6dZgzyETDwAAAAAAALg8AH8wJDeO1M0q8Y4hAWSnsHrgIwssVQNB3nD5ek/SvdOle/z+AXHoxAMAAAAAAAAuD6ArEJGbRnlhqARQgVgFkIUmOgB7X1cNv7Wp06Pj5UwBAAAAAAAAuCyADkOi8Ic4qg0SZo2xNRD0Ho3/Xh3AlzMHAAAAAAAA4LIAKhBVp23cqBd40PvcbEHX6QaC8rxH/N4XAgAEAAgAEA9rVC/s4Js+V++rokddgYhHFUh6ikEYAAAAAAAAAAAOFo8YDMlNnHIg6LWJ94dRyBgACAAQACAei2BlIqabDBEA35RJD1rek7RM/GshEQAgAEAAgHhdZ3CWMH+wwwst7E1etwEVAAAAAAAQACCOF/ngqQaDvPDSVgKf+oEMAAAAAAAAAAAugKBKvt53SfRBH0UWpAIAAAAAAAIAxLEBZDHFrjPoA0y5mUM3EAQCAAAAAAQAiHMMCM06g7n5tB4umW0W4QUiVwaL3vI8sg0AAgAEAIj5gFB2Bqvkq7iECkxn5Oe2ztPveMvzQAAAAACAAABRI/CNH1aTr40mM7zgVHdOdd7q9VbPE2YAAAAAAAAAAIj1zqAXoaySnxtL5l/fjHp2nhezfOR5vsnVo4pfAQAAAAAAAADw7AjUcB0AL1jdJSILUM7OqzaBfsR5AAAAAAAAAAAAYB+CBFAhyE0tq6Qf5TwAAAAAAAAAAIh9nUEHsIWgavBqE+wuMW99HgAAAAAAEAAgHoOAB0MAAAAAAAAAAHhuBONvFqFWUYiuSBQFIgAAAAAAAAAAeF4YXXEokg8AAAAAAAAAwPMjYMMIAAAAAAAAAADoEI4Yg0AaFAIAAAAAAAIAxHU6hBoIAgAAAAAAAACAuDYEEAAAAAAgAEBcEwIAAAAAABAAIK4LgVYAAAEAAgAEQRAEQRBPGv8BzZn2XM5rBLAAAAAASUVORK5CYII=;" vertex="1" parent="1">
          <mxGeometry x="320" y="200" width="512" height="280" as="geometry" />
        </mxCell>
        <mxCell id="ieZ4U-sFw4jwm45tuv-F-3" value="" style="rounded=0;whiteSpace=wrap;html=1;fillColor=none;strokeWidth=6;strokeColor=#00FF00;" vertex="1" parent="1">
          <mxGeometry x="320" y="200" width="250" height="280" as="geometry" />
        </mxCell>
        <mxCell id="ieZ4U-sFw4jwm45tuv-F-4" value="" style="rounded=0;whiteSpace=wrap;html=1;fillColor=none;strokeWidth=6;strokeColor=#00FF00;" vertex="1" parent="1">
          <mxGeometry x="570" y="200" width="260" height="280" as="geometry" />
        </mxCell>
        <mxCell id="ieZ4U-sFw4jwm45tuv-F-5" value="Sprites 0+1" style="text;html=1;align=left;verticalAlign=middle;whiteSpace=wrap;rounded=0;fontStyle=1;fontSize=18;" vertex="1" parent="1">
          <mxGeometry x="320" y="160" width="120" height="30" as="geometry" />
        </mxCell>
        <mxCell id="ieZ4U-sFw4jwm45tuv-F-6" value="Sprites 2+3" style="text;html=1;align=left;verticalAlign=middle;whiteSpace=wrap;rounded=0;fontStyle=1;fontSize=18;" vertex="1" parent="1">
          <mxGeometry x="570" y="160" width="120" height="30" as="geometry" />
        </mxCell>
        <mxCell id="ieZ4U-sFw4jwm45tuv-F-7" value="" style="endArrow=classic;startArrow=classic;html=1;rounded=0;" edge="1" parent="1">
          <mxGeometry width="50" height="50" relative="1" as="geometry">
            <mxPoint x="320" y="510" as="sourcePoint" />
            <mxPoint x="570" y="510" as="targetPoint" />
          </mxGeometry>
        </mxCell>
        <mxCell id="ieZ4U-sFw4jwm45tuv-F-8" value="&lt;font style=&quot;font-size: 18px;&quot;&gt;&lt;b&gt;64 pixels&lt;/b&gt;&lt;/font&gt;" style="edgeLabel;html=1;align=center;verticalAlign=middle;resizable=0;points=[];" vertex="1" connectable="0" parent="ieZ4U-sFw4jwm45tuv-F-7">
          <mxGeometry x="-0.016" y="-3" relative="1" as="geometry">
            <mxPoint x="2" y="7" as="offset" />
          </mxGeometry>
        </mxCell>
      </root>
    </mxGraphModel>
  </diagram>
</mxfile>
